<svg xmlns="http://www.w3.org/2000/svg">
  <symbol id="log" viewBox="0 0 130 26">
    <path fill="#fff" d="M95.6.309h3.056l3.532 14.637 3.52-14.637h2.699l-4.923 21.397h-2.604L95.6.31Zm-1.236 0h2.913l.452 14.108v7.29h-3.365V.308Zm12.711 0H110v21.397h-3.353v-7.29L107.075.31ZM83.71.309l2.64 9.64L88.966.31h3.793l-4.662 13.623v7.774H84.59v-7.774L79.929.309h3.78ZM79.485 10.464v8.817c-.246.324-.607.7-1.082 1.132-.468.421-1.082.793-1.843 1.117-.753.313-1.673.47-2.759.47-.96 0-1.831-.186-2.616-.558-.777-.373-1.447-.936-2.01-1.69-.554-.765-.978-1.715-1.272-2.851-.293-1.147-.44-2.504-.44-4.071V9.185c0-1.548.14-2.895.416-4.041.286-1.156.698-2.117 1.237-2.88.54-.765 1.181-1.333 1.926-1.706C71.796.186 72.644 0 73.587 0c1.3 0 2.366.27 3.199.808.84.54 1.474 1.338 1.902 2.396.436 1.058.698 2.356.785 3.894h-3.365c-.056-.901-.178-1.607-.369-2.116-.182-.51-.44-.872-.773-1.088-.333-.225-.765-.338-1.296-.338-.46 0-.86.103-1.2.31-.341.195-.627.518-.857.969-.23.45-.4 1.029-.511 1.734-.111.706-.167 1.568-.167 2.587v3.674c0 1.009.064 1.87.19 2.586.127.715.314 1.298.56 1.749.253.45.57.779.95.985.39.196.845.294 1.368.294.42 0 .757-.054 1.01-.162.255-.108.457-.22.607-.338.159-.127.29-.226.393-.294v-3.939h-2.485v-3.247h5.957ZM53.4.309h5.554c1.157 0 2.144.245 2.96.734.817.49 1.443 1.215 1.879 2.175.436.96.654 2.146.654 3.557 0 1.156-.127 2.145-.38 2.968-.254.814-.615 1.495-1.082 2.043a5.351 5.351 0 0 1-1.677 1.293l-1.058.78h-4.507l-.012-3.572h3.127c.476 0 .869-.127 1.178-.382.317-.264.55-.632.701-1.102.159-.48.238-1.039.238-1.675 0-.676-.071-1.254-.214-1.735-.135-.49-.353-.862-.654-1.116-.293-.265-.678-.397-1.153-.397h-2.07v17.826h-3.483V.31Zm7.86 21.397-3.174-9.538 3.65-.014 3.246 9.346v.206H61.26ZM50.503 18.15v3.556h-7.527V18.15h7.527ZM44.058.309v21.397h-3.483V.31h3.483Zm5.434 8.67v3.454h-6.516V8.979h6.516ZM50.48.31v3.57h-7.503V.31h7.503ZM33.484 14.167H29.94v-3.571h3.544c.491 0 .892-.137 1.2-.412.318-.274.548-.651.69-1.131a5.88 5.88 0 0 0 .215-1.646 6.26 6.26 0 0 0-.226-1.72c-.143-.538-.369-.974-.678-1.308-.301-.333-.702-.5-1.201-.5h-2.426v17.827h-3.472V.31h5.898c1.165 0 2.168.303 3.008.91.84.608 1.483 1.446 1.927 2.514.451 1.058.677 2.273.677 3.644 0 1.382-.226 2.582-.677 3.6-.444 1.01-1.086 1.794-1.927 2.352-.84.559-1.843.838-3.008.838ZM21.45.309h3.473v14.696c0 1.646-.246 2.988-.737 4.026-.484 1.03-1.154 1.784-2.01 2.264-.856.47-1.835.705-2.937.705-1.11 0-2.097-.235-2.96-.705-.865-.48-1.539-1.235-2.022-2.264-.476-1.038-.714-2.38-.714-4.026V.309h3.473v14.696c0 .93.083 1.646.25 2.145.174.5.423.843.748 1.029.333.176.742.265 1.225.265.491 0 .896-.089 1.213-.265.325-.186.57-.53.737-1.029.174-.5.262-1.215.262-2.145V.309ZM7.848 16.078c0-.383-.028-.73-.083-1.044a2.181 2.181 0 0 0-.357-.867c-.175-.264-.432-.529-.773-.794a8.5 8.5 0 0 0-1.308-.823 28.621 28.621 0 0 1-1.867-1.058 8.863 8.863 0 0 1-1.629-1.322A5.69 5.69 0 0 1 .678 8.406C.4 7.72.262 6.917.262 5.996c0-.901.13-1.72.392-2.454.27-.735.65-1.362 1.141-1.881A5.077 5.077 0 0 1 3.52.44C4.185.157 4.927.015 5.743.015c1.11 0 2.07.284 2.878.852.816.568 1.446 1.347 1.89 2.337.452.99.678 2.126.678 3.41H7.717c0-.608-.071-1.142-.214-1.603-.135-.47-.353-.837-.654-1.102-.301-.264-.69-.397-1.165-.397-.444 0-.813.113-1.106.338a1.94 1.94 0 0 0-.642.897 3.697 3.697 0 0 0-.202 1.264c0 .352.067.67.202.955.142.274.337.524.582.75.246.215.535.426.868.631.341.206.714.407 1.118.603.785.382 1.479.803 2.081 1.264a6.92 6.92 0 0 1 1.51 1.528c.404.559.71 1.19.916 1.896.206.705.309 1.509.309 2.41 0 .892-.127 1.705-.38 2.44a5.34 5.34 0 0 1-1.083 1.88c-.475.52-1.05.922-1.724 1.206-.666.284-1.41.426-2.235.426-.8 0-1.558-.137-2.271-.412a5.346 5.346 0 0 1-1.891-1.278c-.539-.578-.963-1.308-1.272-2.19C.154 17.23 0 16.175 0 14.96h3.484c0 .647.051 1.2.155 1.661.103.45.261.813.475 1.088.214.264.476.465.785.602.317.128.678.191 1.082.191.46 0 .824-.107 1.094-.323.277-.215.476-.505.594-.867.12-.363.179-.774.179-1.235Z"/>
  </symbol>
  <symbol id="vk-icon" viewBox="0 0 25 25">
    <path fill="#fff" d="M12.5 0C5.597 0 0 5.597 0 12.5S5.597 25 12.5 25 25 19.403 25 12.5 19.403 0 12.5 0Z"/><path fill="#030A1A" d="M13.723 15.052c.442-.143 1.01.944 1.612 1.36.453.316.8.248.8.248l1.608-.023s.84-.052.444-.72c-.033-.055-.233-.495-1.198-1.4-1.008-.945-.87-.792.343-2.427.74-.997 1.035-1.606.942-1.866-.088-.25-.632-.184-.632-.184l-1.811.012c-.177 0-.326.055-.394.239-.002.002-.288.771-.67 1.425-.806 1.385-1.128 1.458-1.261 1.372-.306-.201-.229-.805-.229-1.234 0-1.341.2-1.9-.391-2.045-.198-.049-.343-.08-.847-.085-.644-.01-1.192 0-1.502.153-.206.103-.364.33-.268.342.12.017.39.074.535.272.185.255.18.828.18.828s.106 1.58-.25 1.775c-.245.135-.58-.14-1.298-1.396-.367-.643-.645-1.353-.645-1.353s-.053-.132-.15-.204c-.117-.086-.279-.113-.279-.113l-1.72.01s-.258.008-.353.122c-.084.101-.007.31-.007.31s1.347 3.186 2.873 4.79c1.398 1.474 2.987 1.376 2.987 1.376h.72s.217-.025.329-.144c.103-.111.099-.32.099-.32s-.015-.977.433-1.12Z"/>
  </symbol>
  <symbol id="classmates-icon" viewBox="0 0 25 25">
    <path fill="#030A1A" d="M12.68 6.889c.899 0 1.63.754 1.63 1.682 0 .925-.731 1.679-1.63 1.679-.898 0-1.629-.754-1.629-1.68 0-.927.73-1.681 1.63-1.681Zm0 5.741c2.17 0 3.935-1.821 3.935-4.06 0-2.24-1.764-4.061-3.935-4.061-2.17 0-3.932 1.821-3.932 4.062 0 2.238 1.762 4.06 3.932 4.06Zm1.592 3.313a7.295 7.295 0 0 0 2.284-.977c.538-.35.7-1.084.362-1.64a1.13 1.13 0 0 0-1.591-.375 4.866 4.866 0 0 1-5.296 0 1.127 1.127 0 0 0-1.589.375 1.213 1.213 0 0 0 .363 1.64c.712.46 1.483.788 2.284.978l-2.2 2.268a1.218 1.218 0 0 0 0 1.682c.227.232.52.349.814.349.295 0 .59-.117.818-.35l2.16-2.229 2.162 2.23c.449.466 1.177.466 1.629 0 .449-.464.449-1.218 0-1.682l-2.2-2.268Z"/>
  </symbol>
  <symbol id="reddit-icon" viewBox="0 0 25 25">
    <path fill="#030A1A" d="M13.851 5.556c-.445 0-.863.226-1.131.551-.268.326-.416.723-.524 1.142-.17.673-.224 1.42-.236 2.093a7.317 7.317 0 0 0-3.327 1.027c-.382-.32-.842-.5-1.283-.494-.503.004-.98.22-1.334.665-.678.85-.6 2.238.186 3.064a4.173 4.173 0 0 0-.085.78c0 2.796 2.858 5.06 6.383 5.06s6.383-2.266 6.383-5.06c0-.264-.036-.526-.084-.78.785-.826.863-2.214.185-3.064a1.697 1.697 0 0 0-1.334-.665c-.44-.005-.9.173-1.283.494a7.314 7.314 0 0 0-3.31-1.027c.017-.62.062-1.265.186-1.75.078-.305.171-.526.27-.647.1-.122.171-.172.338-.172.361 0 .407.117.625.4.11.143.236.32.439.495.203.173.502.323.827.323V6.773c-.09 0-.107-.002-.169-.057-.06-.054-.145-.18-.27-.342-.249-.326-.732-.818-1.452-.818Zm3.512.114c-.84 0-1.52.766-1.52 1.712 0 .947.68 1.712 1.52 1.712s1.52-.765 1.52-1.712c0-.946-.68-1.712-1.52-1.712Zm0 .609c.54 0 .98.494.98 1.103s-.44 1.104-.98 1.104-.98-.495-.98-1.104c0-.609.44-1.103.98-1.103ZM12.5 10.293c2.991 0 5.522 1.877 5.522 4.09 0 2.217-2.53 4.091-5.522 4.091-2.99 0-5.522-1.874-5.522-4.09 0-2.215 2.531-4.09 5.522-4.09Zm-5.133.552c.15.002.306.04.456.114a4.986 4.986 0 0 0-1.267 1.598c-.202-.47-.148-1.058.101-1.37a.877.877 0 0 1 .71-.342Zm10.267 0a.877.877 0 0 1 .709.342c.249.312.304.9.101 1.37a4.986 4.986 0 0 0-1.266-1.598c.15-.074.306-.112.456-.114Zm-7.295 1.522c-.54 0-.98.495-.98 1.103 0 .61.44 1.104.98 1.104s.98-.495.98-1.104c0-.608-.44-1.103-.98-1.103Zm4.323 0c-.54 0-.98.495-.98 1.103 0 .61.44 1.104.98 1.104s.979-.495.979-1.104c0-.608-.44-1.103-.98-1.103Zm-4.847 3.748c.344.802 1.408 1.58 2.685 1.58 1.277 0 2.358-.779 2.702-1.58-.625.454-1.61.761-2.702.761-1.091 0-2.06-.307-2.685-.761Z"/>
  </symbol>
</svg>
